<svg xmlns="http://www.w3.org/2000/svg" width="121" height="27" viewBox="0 0 121 27" fill="none">
  <g clip-path="url(#clip0_1680_987)">
    <path d="M41.4709 19.0862H36.7989C35.8645 19.0862 35.1065 18.3307 35.1065 17.3992V5.43404C35.1065 4.47005 34.3224 3.68843 33.3554 3.68843H31.0618C30.8201 3.68843 30.624 3.88383 30.624 4.12483V17.3927C30.624 20.7927 33.388 23.5479 36.7989 23.5479H41.4709C41.7127 23.5479 41.9087 23.3525 41.9087 23.1115V19.5161C41.9087 19.2816 41.7127 19.0862 41.4709 19.0862Z" fill="white"/>
    <path d="M90.9616 3.65586H86.7796V2.38574C86.7796 1.42175 85.9955 0.640137 85.0285 0.640137H82.7349C82.4932 0.640137 82.2971 0.835541 82.2971 1.07654V4.20299V8.67121V17.3992C82.2971 20.7992 85.0611 23.5544 88.472 23.5544H90.9616C91.2033 23.5544 91.3994 23.359 91.3994 23.118V19.5226C91.3994 19.2816 91.2033 19.0862 90.9616 19.0862H88.472C87.5376 19.0862 86.7796 18.3307 86.7796 17.3992V8.12408H90.9616C91.2033 8.12408 91.3994 7.92868 91.3994 7.68768V4.09226C91.3994 3.85126 91.2033 3.65586 90.9616 3.65586Z" fill="white"/>
    <path d="M103.632 4.32675C98.3126 4.24858 93.8889 8.52792 93.8105 13.8299C93.7386 19.2165 98.0905 23.6065 103.481 23.6065C106.592 23.6065 109.356 22.1475 111.126 19.8743C111.283 19.6789 111.231 19.3923 111.022 19.249L109.205 18.018C108.558 17.5751 107.689 17.6142 107.095 18.1222C106.128 18.9625 104.86 19.4705 103.481 19.4705C100.913 19.4705 98.7439 17.7119 98.1362 15.3345H108.826H111.78C112.531 15.3345 113.152 14.7352 113.152 13.9862C113.152 13.9797 113.152 13.9797 113.152 13.9732C113.152 13.2437 113.074 12.5337 112.917 11.8498C111.956 7.58347 108.173 4.39839 103.632 4.32675ZM98.391 11.8433C99.2274 9.86317 101.194 8.4693 103.481 8.4693C105.768 8.4693 107.735 9.86317 108.571 11.8433H98.391Z" fill="white"/>
    <path d="M62.6093 8.36508C64.1383 8.27389 65.5432 8.80799 66.5952 9.7329C67.1833 10.2475 68.0458 10.2931 68.6993 9.86317L70.5354 8.64516C70.7445 8.50837 70.7968 8.22178 70.6465 8.01987C68.9214 5.76621 66.2293 4.29418 63.1843 4.22253C57.8328 4.09877 53.3568 8.39113 53.2849 13.7256C53.213 19.1123 57.5714 23.4958 62.9556 23.4958C66.0594 23.4958 68.8234 22.0368 70.5942 19.7701C70.751 19.5682 70.6988 19.2816 70.4897 19.1448L68.6405 17.9268C67.9936 17.4969 67.131 17.536 66.543 18.0375C65.5759 18.8647 64.3213 19.3598 62.9556 19.3598C59.7734 19.3598 57.212 16.6632 57.4538 13.4391C57.6498 10.7099 59.878 8.52792 62.6093 8.36508Z" fill="white"/>
    <path d="M48.1098 3.69494H45.8162C45.5744 3.69494 45.3784 3.89034 45.3784 4.13134V21.8088C45.3784 22.7728 46.1625 23.5544 47.1296 23.5544H49.4231C49.6649 23.5544 49.8609 23.359 49.8609 23.118V5.43403C49.8544 4.47655 49.0768 3.69494 48.1098 3.69494Z" fill="white"/>
    <path d="M76.9325 3.69494H74.639C74.3972 3.69494 74.2012 3.89034 74.2012 4.13134V21.8088C74.2012 22.7728 74.9853 23.5544 75.9524 23.5544H78.2459C78.4877 23.5544 78.6837 23.359 78.6837 23.118V5.43403C78.6837 4.47655 77.8996 3.69494 76.9325 3.69494Z" fill="white"/>
    <path d="M119.451 3.69494H117.158C116.916 3.69494 116.72 3.89034 116.72 4.13134V21.8088C116.72 22.7728 117.504 23.5544 118.471 23.5544H120.764C121.006 23.5544 121.202 23.359 121.202 23.118V5.43403C121.202 4.47655 120.418 3.69494 119.451 3.69494Z" fill="white"/>
    <path d="M17.0525 26.505H3.53965C1.19384 26.505 -0.720703 24.6031 -0.720703 22.2583V9.97389C-0.720703 9.19228 -0.0868777 8.56048 0.697236 8.56048C1.48135 8.56048 2.11517 9.19228 2.11517 9.97389V22.2648C2.11517 23.0464 2.749 23.6782 3.53311 23.6782H15.6346V20.5778H6.39513C5.61101 20.5778 4.97719 19.946 4.97719 19.1644V1.29147C4.97719 0.509857 5.61101 -0.121948 6.39513 -0.121948H12.5047C12.8706 -0.121948 13.2234 0.0213479 13.4914 0.275372L18.0457 4.65241C18.3202 4.91946 18.477 5.28421 18.477 5.66851V17.7444H21.0973C21.8814 17.7444 22.5152 18.3762 22.5152 19.1578C22.5152 19.9395 21.8814 20.5713 21.0973 20.5713H18.477V25.0851C18.477 25.8732 17.8367 26.505 17.0525 26.505ZM7.81307 17.7444H15.6346V6.27426L11.9297 2.7114H7.81307V17.7444Z" fill="#FF7630"/>
  </g>
  <defs>
    <clipPath id="clip0_1680_987">
      <rect width="121" height="27" fill="white"/>
    </clipPath>
  </defs>
</svg>