<svg width="96" height="96" viewBox="0 0 96 96" fill="none" xmlns="http://www.w3.org/2000/svg">
<path d="M86.4912 31.0535H86.3523C83.5214 31.0361 80.8032 30.4716 78.1981 29.3688C75.5929 28.2572 73.3092 26.6942 71.3293 24.6709C69.3059 22.691 67.7428 20.4071 66.6312 17.8019C65.5284 15.1967 64.9639 12.4787 64.9465 9.64777C64.9552 6.235 65.7542 3.02198 67.3433 0H21.5967C20.1813 0 18.7745 0.147626 17.3851 0.425508C15.9957 0.703392 14.6497 1.11153 13.3384 1.64993C12.0271 2.19702 10.7854 2.86567 9.60435 3.64722C8.43202 4.43745 7.33786 5.33189 6.33921 6.33921C5.33189 7.33786 4.43745 8.43202 3.64722 9.60435C2.85699 10.7854 2.19702 12.0271 1.64993 13.3384C1.11153 14.6497 0.694709 15.9957 0.416825 17.3938C0.138942 18.7831 0 20.1813 0 21.6054V74.4033C0 75.8188 0.138942 77.2255 0.416825 78.6149C0.694709 80.0044 1.11153 81.3504 1.64993 82.6616C2.19702 83.9729 2.85699 85.2147 3.64722 86.3957C4.43745 87.5766 5.33189 88.6622 6.33921 89.6696C7.33786 90.6681 8.43202 91.5627 9.60435 92.3528C10.7854 93.1431 12.0271 93.803 13.3384 94.35C14.6497 94.8886 15.9957 95.3054 17.3851 95.5832C18.7745 95.8611 20.1813 96 21.5967 96H74.3946C75.8188 96 77.2169 95.8611 78.6149 95.5832C80.0044 95.3054 81.3504 94.8886 82.6616 94.35C83.9729 93.803 85.2147 93.1431 86.3957 92.3528C87.568 91.5627 88.6622 90.6681 89.6608 89.6696C90.6681 88.6622 91.5627 87.5766 92.3528 86.3957C93.1344 85.2147 93.803 83.9729 94.35 82.6616C94.8886 81.3504 95.2967 80.0044 95.5745 78.6149C95.8524 77.2255 96 75.8188 96 74.4033V28.6567C93.0302 30.2458 89.8605 31.0448 86.4912 31.0535ZM31.201 48.0044H31.149C30.4978 47.9782 29.9506 47.7352 29.4904 47.275C29.0389 46.806 28.8043 46.2503 28.7956 45.599C28.7956 44.6436 28.978 43.732 29.3428 42.8461C29.7161 41.9605 30.2285 41.1875 30.9059 40.5102C31.5832 39.8328 32.3648 39.3118 33.2418 38.9471C34.1275 38.5823 35.048 38.4001 35.9945 38.4001C36.9499 38.4001 37.8702 38.5823 38.7561 38.9471C39.6331 39.3118 40.4147 39.8328 41.092 40.5102C41.7694 41.1875 42.2817 41.9605 42.6551 42.8461C43.0199 43.732 43.2023 44.6436 43.2023 45.599C43.2023 45.9203 43.1414 46.2242 43.0199 46.5194C42.8983 46.8146 42.7246 47.0839 42.4988 47.3097C42.2731 47.5354 42.0125 47.7005 41.7172 47.822C41.4221 47.9436 41.1181 48.0044 40.7968 48.0044C40.4842 48.0044 40.1716 47.9349 39.885 47.8133C39.5897 47.6918 39.3291 47.5181 39.1034 47.2923C38.8776 47.0752 38.7039 46.8146 38.5823 46.5194C38.4608 46.2242 38.4001 45.9203 38.4001 45.599C38.4261 45.2776 38.3913 44.9563 38.2784 44.6436C38.1655 44.3399 37.9919 44.0706 37.766 43.8362C37.5316 43.6016 37.2625 43.4367 36.9499 43.3238C36.6459 43.2109 36.3246 43.1674 35.9945 43.2023C35.6732 43.1761 35.3519 43.2196 35.0393 43.3411C34.7267 43.454 34.4576 43.6278 34.2318 43.8622C33.9973 44.1053 33.8237 44.3745 33.7195 44.6872C33.6066 44.9998 33.5631 45.3211 33.5978 45.651C33.5804 46.3023 33.3373 46.8495 32.8683 47.3097C32.4082 47.7612 31.8524 47.9958 31.201 48.0044ZM62.1069 55.6808C61.777 57.3048 61.1864 58.8332 60.3268 60.2486C59.4671 61.6728 58.3902 62.9059 57.105 63.9567C55.8199 65.0074 54.3957 65.8064 52.8326 66.3621C51.2695 66.9178 49.6544 67.2044 47.9958 67.2044C46.3371 67.2044 44.7305 66.9178 43.1674 66.3621C41.6043 65.8064 40.1803 65.0074 38.895 63.9567C37.6011 62.9059 36.5331 61.6728 35.6732 60.2486C34.8136 58.8332 34.223 57.3048 33.8844 55.6808C33.8237 55.3682 33.8237 55.0556 33.8844 54.743C33.9452 54.4304 34.0581 54.1439 34.2318 53.8747C34.4141 53.6142 34.6312 53.3883 34.8918 53.2147C35.1609 53.0323 35.4475 52.9108 35.7601 52.8499C36.0727 52.7806 36.3853 52.7806 36.698 52.8413C37.0106 52.9021 37.2972 53.0237 37.5665 53.1974C37.8269 53.371 38.0526 53.5967 38.2264 53.8573C38.4088 54.1177 38.5303 54.413 38.591 54.717C38.8081 55.8026 39.2076 56.8184 39.7808 57.765C40.3538 58.7115 41.0659 59.5365 41.9256 60.2399C42.7854 60.9347 43.732 61.473 44.774 61.8465C45.8161 62.2198 46.8928 62.4022 47.9958 62.4022C49.1072 62.4022 50.1841 62.2198 51.2261 61.8465C52.2682 61.473 53.2147 60.9347 54.0744 60.2399C54.9254 59.5365 55.6462 58.7115 56.2194 57.765C56.7924 56.8184 57.1832 55.8026 57.409 54.717C57.4699 54.413 57.5914 54.1177 57.7736 53.8573C57.9474 53.5967 58.1731 53.371 58.4337 53.1974C58.7028 53.0237 58.9894 52.9021 59.302 52.8413C59.6147 52.7806 59.9273 52.7892 60.2399 52.8499C60.5525 52.9108 60.8391 53.0323 61.0996 53.2147C61.3688 53.3883 61.5859 53.6142 61.7597 53.8747C61.9332 54.1439 62.0549 54.4304 62.1156 54.743C62.1765 55.0556 62.1765 55.3682 62.1069 55.6808ZM64.799 48.0044C64.4777 48.0044 64.1737 47.9349 63.8785 47.8133C63.5919 47.6918 63.3314 47.5181 63.1057 47.2923C62.8797 47.0752 62.7062 46.8146 62.5846 46.5194C62.4629 46.2242 62.4022 45.9203 62.4022 45.599C62.4282 45.2776 62.3936 44.9563 62.2807 44.6436C62.1678 44.3399 61.9941 44.0706 61.7597 43.8362C61.5339 43.6016 61.2646 43.4367 60.952 43.3238C60.6394 43.2109 60.3268 43.1674 59.9968 43.2023C59.6669 43.1761 59.3456 43.2196 59.0416 43.3411C58.729 43.454 58.4597 43.6278 58.2253 43.8622C57.9996 44.1053 57.8258 44.3745 57.7129 44.6872C57.6087 44.9998 57.5652 45.3211 57.6001 45.651C57.5741 46.3023 57.3395 46.8495 56.8706 47.3097C56.4103 47.7612 55.8459 47.9958 55.1947 48.0044H55.1511C54.4999 47.9782 53.9442 47.7352 53.4925 47.275C53.041 46.806 52.8066 46.2503 52.7979 45.599C52.7979 44.6436 52.9801 43.732 53.345 42.8461C53.7096 41.9605 54.2306 41.1875 54.908 40.5102C55.5853 39.8328 56.3583 39.3118 57.2439 38.9471C58.1298 38.5823 59.0416 38.4001 59.9968 38.4001C60.952 38.4001 61.8725 38.5823 62.7582 38.9471C63.6354 39.3118 64.4168 39.8328 65.0943 40.5102C65.7628 41.1875 66.2839 41.9605 66.6487 42.8461C67.0133 43.732 67.1957 44.6436 67.1957 45.599C67.2044 45.9203 67.1435 46.2242 67.022 46.5194C66.9004 46.8146 66.7267 47.0839 66.501 47.3097C66.2752 47.5354 66.0148 47.7005 65.7195 47.822C65.4242 47.9436 65.1203 48.0044 64.799 48.0044ZM95.2792 22.9949L73.1008 0.720761C72.9444 0.581818 72.7707 0.468927 72.5709 0.38209C70.6692 3.17829 69.7227 6.26975 69.74 9.64777C69.7574 10.7332 69.8791 11.81 70.1048 12.8695C70.3306 13.9289 70.6519 14.9623 71.0774 15.9609C71.5029 16.9596 72.0152 17.9148 72.6231 18.8093C73.231 19.7123 73.9169 20.546 74.6899 21.3103C75.454 22.0831 76.2877 22.769 77.1909 23.3769C78.0852 23.9848 79.0406 24.4971 80.0391 24.9226C81.0378 25.3481 82.0712 25.6694 83.1306 25.8953C84.19 26.1211 85.2668 26.2426 86.3523 26.26C89.7563 26.3469 92.8391 25.4003 95.618 23.4291C95.5138 23.2727 95.4096 23.1251 95.2792 22.9949Z" fill="#CB6441"/>
</svg>
